<svg aria-hidden="true" viewBox="0 0 24 24" fill="none" xmlns="http://www.w3.org/2000/svg">
<path d="M16.5996 6C17.0114 6 17.3508 5.99998 17.626 6.02246C17.907 6.04543 18.1656 6.09414 18.4082 6.21777C18.7845 6.40951 19.0905 6.71554 19.2822 7.0918C19.4059 7.33444 19.4546 7.59301 19.4775 7.87402C19.5 8.14924 19.5 8.4886 19.5 8.90039V15.0996C19.5 15.5114 19.5 15.8508 19.4775 16.126C19.4546 16.407 19.4059 16.6656 19.2822 16.9082C19.0905 17.2845 18.7845 17.5905 18.4082 17.7822C18.1656 17.9059 17.907 17.9546 17.626 17.9775C17.3508 18 17.0114 18 16.5996 18H16.4004C15.9886 18 15.6492 18 15.374 17.9775C15.093 17.9546 14.8344 17.9059 14.5918 17.7822C14.2155 17.5905 13.9095 17.2845 13.7178 16.9082C13.5941 16.6656 13.5454 16.407 13.5225 16.126C13.5 15.8508 13.5 15.5114 13.5 15.0996V8.90039C13.5 8.4886 13.5 8.14924 13.5225 7.87402C13.5454 7.59301 13.5941 7.33444 13.7178 7.0918C13.9095 6.71554 14.2155 6.40951 14.5918 6.21777C14.8344 6.09414 15.093 6.04543 15.374 6.02246C15.6492 5.99998 15.9886 6 16.4004 6H16.5996ZM15.7998 7C15.6681 7 15.5391 6.99993 15.4307 7.00879C15.3164 7.01814 15.1815 7.04028 15.0459 7.10938C14.8579 7.20521 14.7052 7.35793 14.6094 7.5459C14.5403 7.68151 14.5181 7.81642 14.5088 7.93066C14.4999 8.03907 14.5 8.16811 14.5 8.2998V12.7002C14.5 12.8319 14.4999 12.9609 14.5088 13.0693C14.5181 13.1836 14.5403 13.3185 14.6094 13.4541C14.7052 13.6421 14.8579 13.7948 15.0459 13.8906C15.1815 13.9597 15.3164 13.9819 15.4307 13.9912C15.5391 14.0001 15.6681 14 15.7998 14H17.2002C17.3319 14 17.4609 14.0001 17.5693 13.9912C17.6836 13.9819 17.8185 13.9597 17.9541 13.8906C18.1421 13.7948 18.2948 13.6421 18.3906 13.4541C18.4597 13.3185 18.4819 13.1836 18.4912 13.0693C18.5001 12.9609 18.5 12.8319 18.5 12.7002V8.2998C18.5 8.16811 18.5001 8.03907 18.4912 7.93066C18.4819 7.81642 18.4597 7.68151 18.3906 7.5459C18.2948 7.35793 18.1421 7.20521 17.9541 7.10938C17.8185 7.04028 17.6836 7.01814 17.5693 7.00879C17.4609 6.99993 17.3319 7 17.2002 7H15.7998Z" fill="currentColor"/>
<path d="M8.59961 6C9.0114 6 9.35076 5.99998 9.62598 6.02246C9.90699 6.04543 10.1656 6.09414 10.4082 6.21777C10.7845 6.40951 11.0905 6.71554 11.2822 7.0918C11.4059 7.33444 11.4546 7.59301 11.4775 7.87402C11.5 8.14924 11.5 8.4886 11.5 8.90039V15.0996C11.5 15.5114 11.5 15.8508 11.4775 16.126C11.4546 16.407 11.4059 16.6656 11.2822 16.9082C11.0905 17.2845 10.7845 17.5905 10.4082 17.7822C10.1656 17.9059 9.90699 17.9546 9.62598 17.9775C9.35076 18 9.0114 18 8.59961 18H8.40039C7.9886 18 7.64924 18 7.37402 17.9775C7.09301 17.9546 6.83444 17.9059 6.5918 17.7822C6.21554 17.5905 5.90951 17.2845 5.71777 16.9082C5.59414 16.6656 5.54543 16.407 5.52246 16.126C5.49998 15.8508 5.5 15.5114 5.5 15.0996V8.90039C5.5 8.4886 5.49998 8.14924 5.52246 7.87402C5.54543 7.59301 5.59414 7.33444 5.71777 7.0918C5.90951 6.71554 6.21554 6.40951 6.5918 6.21777C6.83444 6.09414 7.09301 6.04543 7.37402 6.02246C7.64924 5.99998 7.9886 6 8.40039 6H8.59961ZM7.7998 7C7.66811 7 7.53907 6.99993 7.43066 7.00879C7.31642 7.01814 7.18151 7.04028 7.0459 7.10938C6.85793 7.20521 6.70521 7.35793 6.60938 7.5459C6.54028 7.68151 6.51814 7.81642 6.50879 7.93066C6.49993 8.03907 6.5 8.16811 6.5 8.2998V9.7002C6.5 9.83189 6.49993 9.96093 6.50879 10.0693C6.51814 10.1836 6.54028 10.3185 6.60938 10.4541C6.70521 10.6421 6.85793 10.7948 7.0459 10.8906C7.18151 10.9597 7.31642 10.9819 7.43066 10.9912C7.53907 11.0001 7.66811 11 7.7998 11H9.2002C9.33189 11 9.46093 11.0001 9.56934 10.9912C9.68358 10.9819 9.81849 10.9597 9.9541 10.8906C10.1421 10.7948 10.2948 10.6421 10.3906 10.4541C10.4597 10.3185 10.4819 10.1836 10.4912 10.0693C10.5001 9.96093 10.5 9.83189 10.5 9.7002V8.2998C10.5 8.16811 10.5001 8.03907 10.4912 7.93066C10.4819 7.81642 10.4597 7.68151 10.3906 7.5459C10.2948 7.35793 10.1421 7.20521 9.9541 7.10938C9.81849 7.04028 9.68358 7.01814 9.56934 7.00879C9.46093 6.99993 9.33189 7 9.2002 7H7.7998Z" fill="currentColor"/>
</svg>
