<svg aria-hidden="true" viewBox="0 0 24 24" fill="none" xmlns="http://www.w3.org/2000/svg">
<path d="M16.5996 4C17.0114 4 17.3508 3.99998 17.626 4.02246C17.907 4.04543 18.1656 4.09414 18.4082 4.21777C18.7845 4.40951 19.0905 4.71554 19.2822 5.0918C19.4059 5.33444 19.4546 5.59301 19.4775 5.87402C19.5 6.14924 19.5 6.4886 19.5 6.90039V13.0996C19.5 13.5114 19.5 13.8508 19.4775 14.126C19.4546 14.407 19.4059 14.6656 19.2822 14.9082C19.0905 15.2845 18.7845 15.5905 18.4082 15.7822C18.1656 15.9059 17.907 15.9546 17.626 15.9775C17.3508 16 17.0114 16 16.5996 16H16.4004C15.9886 16 15.6492 16 15.374 15.9775C15.093 15.9546 14.8344 15.9059 14.5918 15.7822C14.2155 15.5905 13.9095 15.2845 13.7178 14.9082C13.5941 14.6656 13.5454 14.407 13.5225 14.126C13.5 13.8508 13.5 13.5114 13.5 13.0996V6.90039C13.5 6.4886 13.5 6.14924 13.5225 5.87402C13.5454 5.59301 13.5941 5.33444 13.7178 5.0918C13.9095 4.71554 14.2155 4.40951 14.5918 4.21777C14.8344 4.09414 15.093 4.04543 15.374 4.02246C15.6492 3.99998 15.9886 4 16.4004 4H16.5996ZM15.7998 5C15.6681 5 15.5391 4.99993 15.4307 5.00879C15.3164 5.01814 15.1815 5.04028 15.0459 5.10938C14.8579 5.20521 14.7052 5.35793 14.6094 5.5459C14.5403 5.68151 14.5181 5.81642 14.5088 5.93066C14.4999 6.03907 14.5 6.16811 14.5 6.2998V10.7002C14.5 10.8319 14.4999 10.9609 14.5088 11.0693C14.5181 11.1836 14.5403 11.3185 14.6094 11.4541C14.7052 11.6421 14.8579 11.7948 15.0459 11.8906C15.1815 11.9597 15.3164 11.9819 15.4307 11.9912C15.5391 12.0001 15.6681 12 15.7998 12H17.2002C17.3319 12 17.4609 12.0001 17.5693 11.9912C17.6836 11.9819 17.8185 11.9597 17.9541 11.8906C18.1421 11.7948 18.2948 11.6421 18.3906 11.4541C18.4597 11.3185 18.4819 11.1836 18.4912 11.0693C18.5001 10.9609 18.5 10.8319 18.5 10.7002V6.2998C18.5 6.16811 18.5001 6.03907 18.4912 5.93066C18.4819 5.81642 18.4597 5.68151 18.3906 5.5459C18.2948 5.35793 18.1421 5.20521 17.9541 5.10938C17.8185 5.04028 17.6836 5.01814 17.5693 5.00879C17.4609 4.99993 17.3319 5 17.2002 5H15.7998Z" fill="currentColor"/>
<path d="M8.59961 7C9.0114 7 9.35076 6.99998 9.62598 7.02246C9.90699 7.04543 10.1656 7.09414 10.4082 7.21777C10.7845 7.40951 11.0905 7.71554 11.2822 8.0918C11.4059 8.33444 11.4546 8.59301 11.4775 8.87402C11.5 9.14924 11.5 9.4886 11.5 9.90039V16.0996C11.5 16.5114 11.5 16.8508 11.4775 17.126C11.4546 17.407 11.4059 17.6656 11.2822 17.9082C11.0905 18.2845 10.7845 18.5905 10.4082 18.7822C10.1656 18.9059 9.90699 18.9546 9.62598 18.9775C9.35076 19 9.0114 19 8.59961 19H8.40039C7.9886 19 7.64924 19 7.37402 18.9775C7.09301 18.9546 6.83444 18.9059 6.5918 18.7822C6.21554 18.5905 5.90951 18.2845 5.71777 17.9082C5.59414 17.6656 5.54543 17.407 5.52246 17.126C5.49998 16.8508 5.5 16.5114 5.5 16.0996V9.90039C5.5 9.4886 5.49998 9.14924 5.52246 8.87402C5.54543 8.59301 5.59414 8.33444 5.71777 8.0918C5.90951 7.71554 6.21554 7.40951 6.5918 7.21777C6.83444 7.09414 7.09301 7.04543 7.37402 7.02246C7.64924 6.99998 7.9886 7 8.40039 7H8.59961ZM7.7998 8C7.66811 8 7.53907 7.99993 7.43066 8.00879C7.31642 8.01814 7.18151 8.04028 7.0459 8.10938C6.85793 8.20521 6.70521 8.35793 6.60938 8.5459C6.54028 8.68151 6.51814 8.81642 6.50879 8.93066C6.49993 9.03907 6.5 9.16811 6.5 9.2998V10.7002C6.5 10.8319 6.49993 10.9609 6.50879 11.0693C6.51814 11.1836 6.54028 11.3185 6.60938 11.4541C6.70521 11.6421 6.85793 11.7948 7.0459 11.8906C7.18151 11.9597 7.31642 11.9819 7.43066 11.9912C7.53907 12.0001 7.66811 12 7.7998 12H9.2002C9.33189 12 9.46093 12.0001 9.56934 11.9912C9.68358 11.9819 9.81849 11.9597 9.9541 11.8906C10.1421 11.7948 10.2948 11.6421 10.3906 11.4541C10.4597 11.3185 10.4819 11.1836 10.4912 11.0693C10.5001 10.9609 10.5 10.8319 10.5 10.7002V9.2998C10.5 9.16811 10.5001 9.03907 10.4912 8.93066C10.4819 8.81642 10.4597 8.68151 10.3906 8.5459C10.2948 8.35793 10.1421 8.20521 9.9541 8.10938C9.81849 8.04028 9.68358 8.01814 9.56934 8.00879C9.46093 7.99993 9.33189 8 9.2002 8H7.7998Z" fill="currentColor"/>
<rect x="3.5" y="12.5" width="18" height="2" rx="1" fill="currentColor"/>
</svg>
