<svg aria-hidden="true" viewBox="0 0 38 24" fill="none" xmlns="http://www.w3.org/2000/svg">
<path d="M14.2426 16.2426C13.4035 17.0818 12.3344 17.6532 11.1705 17.8847C10.0067 18.1162 8.80026 17.9974 7.7039 17.5433C6.60754 17.0892 5.67047 16.3201 5.01118 15.3334C4.35189 14.3467 4 13.1867 4 12C4 10.8133 4.35189 9.65327 5.01118 8.66658C5.67047 7.67988 6.60754 6.91085 7.7039 6.45672C8.80026 6.0026 10.0067 5.88378 11.1705 6.11529C12.3344 6.3468 13.4035 6.91824 14.2426 7.75736" stroke="currentColor" stroke-width="2"/>
<path d="M23.2426 16.2426C22.4035 17.0818 21.3344 17.6532 20.1705 17.8847C19.0067 18.1162 17.8003 17.9974 16.7039 17.5433C15.6075 17.0892 14.6705 16.3201 14.0112 15.3334C13.3519 14.3467 13 13.1867 13 12C13 10.8133 13.3519 9.65327 14.0112 8.66658C14.6705 7.67988 15.6075 6.91085 16.7039 6.45672C17.8003 6.0026 19.0067 5.88378 20.1705 6.11529C21.3344 6.3468 22.4035 6.91824 23.2426 7.75736" stroke="currentColor" stroke-width="2"/>
<circle cx="28" cy="12" r="6" stroke="currentColor" stroke-width="2"/>
</svg>
