<svg aria-hidden="true" viewBox="0 0 38 24" fill="none" xmlns="http://www.w3.org/2000/svg">
<path d="M23.7574 7.75736C24.5965 6.91824 25.6656 6.3468 26.8295 6.11529C27.9933 5.88378 29.1997 6.0026 30.2961 6.45672C31.3925 6.91085 32.3295 7.67988 32.9888 8.66658C33.6481 9.65327 34 10.8133 34 12C34 13.1867 33.6481 14.3467 32.9888 15.3334C32.3295 16.3201 31.3925 17.0892 30.2961 17.5433C29.1997 17.9974 27.9933 18.1162 26.8295 17.8847C25.6656 17.6532 24.5965 17.0818 23.7574 16.2426" stroke="currentColor" stroke-width="2"/>
<path d="M14.7574 7.75736C15.5965 6.91824 16.6656 6.3468 17.8295 6.11529C18.9933 5.88378 20.1997 6.0026 21.2961 6.45672C22.3925 6.91085 23.3295 7.67988 23.9888 8.66658C24.6481 9.65327 25 10.8133 25 12C25 13.1867 24.6481 14.3467 23.9888 15.3334C23.3295 16.3201 22.3925 17.0892 21.2961 17.5433C20.1997 17.9974 18.9933 18.1162 17.8295 17.8847C16.6656 17.6532 15.5965 17.0818 14.7574 16.2426" stroke="currentColor" stroke-width="2"/>
<circle cx="10" cy="12" r="6" stroke="currentColor" stroke-width="2"/>
</svg>
