<svg aria-hidden="true" viewBox="0 0 24 24" fill="none" xmlns="http://www.w3.org/2000/svg">
<path d="M4 4C4 4.92997 4 5.39496 4.10222 5.77646C4.37962 6.81173 5.18827 7.62038 6.22354 7.89778C6.60504 8 7.07003 8 8 8H16C16.93 8 17.395 8 17.7765 7.89778C18.8117 7.62038 19.6204 6.81173 19.8978 5.77646C20 5.39496 20 4.92997 20 4M20 20C20 19.07 20 18.605 19.8978 18.2235C19.6204 17.1883 18.8117 16.3796 17.7765 16.1022C17.395 16 16.93 16 16 16L8 16C7.07003 16 6.60504 16 6.22354 16.1022C5.18827 16.3796 4.37962 17.1883 4.10222 18.2235C4 18.605 4 19.07 4 20" stroke="currentColor" stroke-width="2" stroke-linecap="round" stroke-linejoin="round"/>
<circle cx="12" cy="12" r="2" fill="currentColor"/>
</svg>
