<svg aria-hidden="true" viewBox="0 0 24 24" fill="none" xmlns="http://www.w3.org/2000/svg">
<path d="M20 4C19.07 4 18.605 4 18.2235 4.10222C17.1883 4.37962 16.3796 5.18827 16.1022 6.22354C16 6.60504 16 7.07003 16 8L16 16C16 16.93 16 17.395 16.1022 17.7765C16.3796 18.8117 17.1883 19.6204 18.2235 19.8978C18.605 20 19.07 20 20 20M4 20C4.92997 20 5.39496 20 5.77646 19.8978C6.81173 19.6204 7.62038 18.8117 7.89778 17.7765C8 17.395 8 16.93 8 16L8 8C8 7.07003 8 6.60504 7.89778 6.22354C7.62038 5.18827 6.81174 4.37962 5.77646 4.10222C5.39496 4 4.92997 4 4 4" stroke="currentColor" stroke-width="2" stroke-linecap="round" stroke-linejoin="round"/>
<circle cx="12" cy="12" r="2" transform="rotate(90 12 12)" fill="currentColor"/>
</svg>
