<svg aria-hidden="true" viewBox="0 0 24 24" fill="none" xmlns="http://www.w3.org/2000/svg">
<rect x="4" y="4" width="16" height="16" rx="3" stroke="currentColor" stroke-width="2"/>
<path d="M16 5H8C8 6.10457 8.89543 7 10 7H14C15.1046 7 16 6.10457 16 5Z" fill="currentColor"/>
<path d="M19 16L19 8C17.8954 8 17 8.89543 17 10L17 14C17 15.1046 17.8954 16 19 16Z" fill="currentColor"/>
<path d="M8 19L16 19C16 17.8954 15.1046 17 14 17L10 17C8.89543 17 8 17.8954 8 19Z" fill="currentColor"/>
<path d="M5 8L5 16C6.10457 16 7 15.1046 7 14L7 10C7 8.89543 6.10457 8 5 8Z" fill="currentColor"/>
</svg>
